P1
# CREATOR: GIMP PNM Filter Version 1.1
32 16
0000000000000000000000000000000000000000000000000000000000000000000000
0000000000000000000000000000000000000000000000000000000000001010001000
0000000000111100000000110101010000000000010000100000001000100010000000
0010000001000000100010001001111100111111110000001000100010000000001000
0000000000100010001000000000100000000000001000100010000000000100000100
0000100010001000000000001111100000000000000000000000000000000000000000
0000000000000000000000000000000000000000000000000000000000000000000000
0000000000000000000000